<?xml version="1.0" standalone="no"?>
<!DOCTYPE svg PUBLIC "-//W3C//DTD SVG 20010904//EN"
 "http://www.w3.org/TR/2001/REC-SVG-20010904/DTD/svg10.dtd">
<svg version="1.0" xmlns="http://www.w3.org/2000/svg"
 width="1636.000000" height="2186.000000" viewBox="0 0 1636.000000 2186.000000"
 preserveAspectRatio="xMidYMid meet">
<metadata>
Created by potrace 1.13, written by Peter Selinger 2001-2015
</metadata>
<g transform="translate(0.000000,2186.000000) scale(0.100000,-0.100000)"
fill="#000000" stroke="none">
<path d="M10470 21840 c-47 -5 -137 -16 -200 -24 -63 -8 -160 -18 -214 -21
-55 -3 -1027 -98 -2160 -211 -1134 -112 -2122 -207 -2196 -209 -166 -6 -261
-20 -365 -52 -273 -86 -488 -279 -629 -565 -29 -58 -201 -679 -834 -3010 -439
-1616 -802 -2941 -805 -2945 -11 -11 -788 239 -817 263 -59 50 -90 59 -197 59
-56 0 -105 -3 -109 -7 -4 -4 -166 -623 -360 -1375 -245 -946 -354 -1384 -354
-1421 0 -58 15 -95 52 -128 15 -14 197 -76 505 -175 266 -85 483 -157 483
-160 0 -4 -490 -1810 -1089 -4015 -599 -2205 -1096 -4042 -1105 -4083 -54
-240 -78 -548 -57 -721 36 -291 146 -489 343 -617 48 -31 612 -265 2040 -847
1399 -570 2029 -832 2165 -899 1029 -508 1658 -528 1969 -61 81 122 117 220
204 566 43 170 80 311 82 313 2 2 48 20 103 40 157 58 370 166 501 253 414
279 659 644 779 1162 45 195 1313 5515 1326 5561 8 34 16 40 77 64 89 36 179
62 246 70 l55 7 24 -48 c38 -75 76 -207 97 -334 42 -253 48 -486 30 -1345 -50
-2387 -80 -3822 -86 -3992 l-6 -203 -42 -11 c-207 -55 -499 -165 -711 -269
-332 -163 -557 -348 -650 -535 -50 -101 -113 -257 -130 -323 -62 -235 59 -504
324 -722 944 -776 3462 -1094 5502 -694 518 101 939 235 1304 414 282 139 474
276 613 441 69 81 142 220 162 307 15 65 16 370 1 434 -66 288 -414 575 -963
792 l-147 58 -5 72 c-3 39 -15 215 -26 391 -90 1394 -283 2943 -546 4375 -98
533 -92 468 -56 606 64 241 76 350 77 654 0 220 -4 296 -18 382 -92 547 -342
973 -680 1162 -65 37 -187 87 -336 138 -154 52 -262 65 -845 99 -472 28 -560
31 -631 21 -87 -13 -193 -45 -262 -81 -58 -29 -95 -27 -135 8 -58 50 -174 120
-253 152 -119 47 -202 61 -335 56 -147 -5 -226 -26 -369 -98 -115 -58 -116
-58 -145 -41 -16 9 -33 24 -39 33 -7 12 91 454 367 1648 216 933 374 1640 371
1651 -9 28 -32 38 -280 120 -121 40 -223 75 -227 79 -4 3 71 335 167 736 95
402 180 777 189 835 75 515 21 959 -156 1266 -65 114 -122 187 -216 280 l-75
74 468 1867 469 1868 4 130 c3 94 0 148 -12 196 -65 281 -290 457 -666 524
-111 19 -433 28 -560 15z m425 -40 c178 -18 208 -27 261 -79 88 -87 140 -187
165 -315 15 -77 11 -279 -6 -381 -18 -103 -1644 -6555 -1656 -6569 -10 -12
-231 63 -226 78 10 26 1668 6636 1678 6691 15 81 6 197 -22 270 -56 151 -251
266 -494 292 -47 5 -55 8 -35 14 37 10 221 10 335 -1z m-448 -40 c273 -19 442
-76 541 -185 67 -74 87 -132 86 -255 0 -90 -15 -151 -262 -1135 -144 -572
-522 -2075 -840 -3340 l-578 -2300 -28 2 c-16 1 -30 4 -32 6 -2 2 320 1292
715 2868 396 1575 719 2864 718 2865 -7 5 -6192 -418 -6198 -423 -7 -8 -4311
-15817 -4313 -15842 -1 -9 920 -351 2919 -1083 1606 -588 2931 -1070 2944
-1071 23 -2 38 56 1175 4583 l1152 4585 28 -2 c16 -1 30 -4 32 -6 2 -2 -417
-1680 -931 -3728 -515 -2048 -1066 -4243 -1226 -4877 -304 -1211 -323 -1278
-417 -1439 -166 -284 -382 -413 -690 -413 -198 0 -365 41 -662 163 -74 31
-1025 419 -2113 862 -1088 443 -2000 816 -2025 829 -274 139 -409 443 -388
871 7 134 33 326 62 456 9 41 1044 3859 2300 8484 1812 6673 2292 8426 2322
8489 185 393 509 606 924 606 47 0 1039 95 2205 211 1165 116 2183 214 2263
218 80 4 152 9 160 9 8 1 79 -3 157 -8z m861 -61 c181 -81 306 -226 347 -401
17 -74 19 -230 4 -313 -13 -72 -1659 -6638 -1665 -6645 -3 -2 -70 17 -150 44
-118 39 -144 51 -140 64 37 127 1640 6504 1652 6572 23 129 23 333 0 425 -23
91 -75 199 -122 254 -34 40 -36 43 -13 36 13 -4 53 -20 87 -36z m-598 -1471
c-1 -19 -1416 -5647 -1422 -5653 -2 -3 -99 27 -214 66 -197 67 -215 71 -319
76 -97 4 -117 2 -170 -18 -73 -27 -149 -100 -186 -179 -28 -57 -699 -2735
-720 -2873 -23 -145 9 -274 88 -352 62 -62 145 -102 283 -136 190 -47 361
-101 357 -113 -2 -6 -519 -2061 -1147 -4566 -629 -2505 -1146 -4558 -1149
-4562 -5 -6 -5794 2104 -5808 2116 -4 3 4293 15785 4299 15791 5 6 5952 411
6061 414 32 1 47 -3 47 -11z m180 -3173 c110 -132 176 -251 230 -411 89 -262
108 -620 55 -1004 -12 -84 -322 -1426 -361 -1562 -4 -14 -59 2 -382 109 -207
69 -381 129 -386 134 -5 5 138 597 349 1438 l358 1430 41 -34 c23 -18 66 -63
96 -100z m-8709 -1991 c58 -33 71 -73 66 -194 -5 -101 -18 -155 -325 -1272
-191 -693 -331 -1187 -347 -1218 -30 -60 -102 -140 -151 -171 -29 -18 -39 -19
-69 -9 -52 17 -85 62 -85 116 0 26 146 611 350 1400 193 746 350 1358 350
1359 0 22 169 13 211 -11z m659 -242 c118 -37 214 -73 214 -78 -8 -56 -771
-2834 -779 -2834 -9 0 -120 35 -621 196 l-202 64 63 63 c37 37 76 89 95 126
23 46 122 393 350 1227 176 640 323 1194 328 1231 5 38 7 94 4 125 l-4 57 168
-54 c93 -30 266 -85 384 -123z m7243 -555 c1176 -391 1242 -415 1245 -438 3
-30 -763 -3348 -777 -3362 -7 -7 -400 106 -1223 351 -667 198 -1250 370 -1295
381 -152 37 -244 95 -291 185 -25 48 -27 58 -26 181 l0 130 347 1387 c190 763
356 1406 367 1429 29 56 93 123 138 145 60 28 92 34 185 29 84 -4 135 -19
1330 -418z m-1392 -3295 l86 -27 -1243 -4919 c-683 -2705 -1255 -4949 -1270
-4985 -160 -387 -491 -591 -957 -591 -100 0 -114 3 -216 40 -108 40 -234 95
-196 85 262 -63 435 -66 612 -10 107 34 193 86 286 174 164 156 275 376 352
694 41 168 2393 9534 2401 9560 7 21 17 20 145 -21z m287 -84 c130 -39 143
-44 138 -63 -3 -11 -562 -2238 -1242 -4950 -679 -2711 -1247 -4963 -1260
-5003 -75 -225 -200 -379 -379 -468 -187 -93 -413 -106 -717 -43 -55 11 -116
27 -136 34 l-37 14 45 0 c25 1 86 8 137 16 379 61 641 266 777 606 22 54 474
1828 1272 4991 682 2700 1243 4908 1249 4908 5 0 74 -19 153 -42z m594 -178
c220 -66 402 -121 404 -123 3 -3 -61 -273 -1145 -4827 -363 -1526 -669 -2813
-680 -2860 -140 -600 -555 -1057 -1184 -1304 -66 -26 -122 -46 -127 -44 -4 2
516 2089 1156 4638 640 2549 1163 4636 1163 4638 2 5 22 -1 413 -118z m1828
-106 c115 -28 330 -144 330 -178 0 -10 -31 -15 -112 -19 -153 -7 -281 -49
-410 -135 -48 -31 -52 -30 -238 63 -164 81 -224 118 -228 137 -4 18 151 98
238 123 133 37 288 40 420 9z m-1115 -99 c233 -70 251 -74 273 -59 12 8 27 26
32 40 5 13 14 24 19 24 6 0 52 -27 103 -61 179 -117 513 -267 721 -325 31 -8
57 -19 57 -24 0 -5 -27 -46 -60 -92 -71 -98 -173 -295 -223 -428 -111 -293
-157 -561 -157 -902 0 -415 95 -797 262 -1059 20 -31 39 -65 42 -76 4 -12 13
-27 21 -33 8 -7 15 -17 15 -22 0 -15 -127 98 -217 194 -45 48 -173 197 -285
330 -306 367 -422 481 -585 574 -205 117 -386 130 -635 47 -60 -20 -111 -33
-115 -30 -10 10 460 1977 472 1977 6 0 122 -34 260 -75z m2562 -45 c354 -21
533 -36 605 -50 57 -11 104 -20 106 -20 2 0 0 -4 -3 -10 -3 -5 -27 -10 -53
-10 -25 0 -85 -10 -132 -21 l-87 -21 -594 61 c-327 34 -601 61 -608 61 -29 0
4 18 49 28 74 16 192 13 717 -18z m-233 -100 c318 -33 580 -61 582 -63 2 -2
-25 -20 -59 -40 -34 -20 -85 -53 -114 -75 l-52 -38 -585 90 c-322 50 -586 94
-586 98 0 9 107 72 144 84 16 6 42 8 60 6 17 -1 292 -30 610 -62z m-874 12 c0
-5 -28 -31 -61 -58 -34 -27 -88 -78 -120 -114 l-57 -64 -109 33 c-126 38 -173
57 -173 68 0 25 173 104 276 126 75 17 244 22 244 9z m2070 -71 c52 -17 131
-53 175 -79 102 -61 270 -226 347 -342 149 -225 249 -504 295 -819 20 -142 23
-499 4 -646 -90 -712 -457 -1282 -926 -1442 -217 -74 -471 -46 -671 74 -347
208 -597 682 -655 1241 -17 169 -7 526 20 677 117 656 438 1145 868 1320 104
42 186 55 323 51 109 -3 137 -7 220 -35z m-1470 -96 c311 -48 572 -89 579 -91
10 -3 -7 -27 -55 -75 l-71 -71 -564 102 c-310 55 -575 104 -588 108 -23 8 -21
10 39 65 38 34 70 55 79 53 9 -3 270 -44 581 -91z m-150 -165 c311 -56 567
-103 569 -106 10 -9 -93 -144 -110 -144 -24 0 -1151 229 -1157 235 -6 6 20 45
60 90 22 26 37 35 52 31 12 -2 275 -50 586 -106z m-160 -165 c315 -63 582
-117 592 -120 15 -6 13 -15 -25 -91 -25 -51 -48 -84 -57 -84 -11 0 -1005 219
-1157 255 -22 5 -21 7 23 80 25 41 46 75 47 75 2 0 261 -52 577 -115z m-90
-201 c316 -70 579 -130 583 -134 8 -7 -37 -135 -54 -154 -7 -8 -1156 260
-1181 276 -16 9 45 138 64 138 7 0 272 -57 588 -126z m-84 -189 c313 -75 576
-138 585 -141 15 -4 14 -13 -8 -87 -14 -45 -27 -84 -29 -86 -9 -10 -1214 253
-1214 265 0 7 14 51 31 98 23 61 36 86 48 86 10 0 273 -61 587 -135z m-72
-224 c335 -72 609 -131 611 -133 3 -3 -26 -161 -31 -167 -4 -5 -1208 270
-1217 278 -6 6 21 151 28 151 1 0 275 -58 609 -129z m-16 -205 c320 -73 584
-135 586 -137 2 -2 -1 -46 -6 -97 -9 -78 -13 -92 -27 -88 -9 3 -284 69 -611
147 -327 77 -598 144 -603 148 -4 4 -2 34 3 67 19 109 18 106 48 99 15 -3 289
-66 610 -139z m-23 -221 l590 -141 -4 -85 c-1 -46 -4 -85 -6 -87 -3 -3 -1225
277 -1237 284 -7 5 -1 143 8 172 2 8 12 10 31 5 16 -4 294 -70 618 -148z m-7
-219 c321 -74 586 -136 589 -139 5 -5 22 -188 18 -194 -1 -2 -284 63 -630 142
-346 80 -631 145 -632 145 -2 0 -3 45 -3 99 l0 99 38 -9 c20 -5 299 -70 620
-143z m-1623 17 c68 -16 196 -76 218 -101 16 -18 39 -139 57 -290 22 -194 30
-552 20 -912 -18 -667 -21 -817 -41 -2845 -12 -1117 -23 -2032 -25 -2034 -2
-2 -80 4 -174 14 l-170 18 5 161 c6 156 72 3243 96 4471 15 799 2 1056 -67
1315 -13 52 -36 119 -49 149 -36 77 -34 82 23 75 26 -3 74 -13 107 -21z m1600
-245 c341 -78 623 -144 627 -148 8 -6 41 -180 35 -186 -2 -3 -1219 269 -1259
282 -16 5 -17 10 -32 157 -2 20 -1 37 2 37 4 0 286 -64 627 -142z m-1152 -42
c93 -94 115 -123 131 -167 139 -407 423 -715 734 -799 24 -6 69 -31 100 -54
124 -94 301 -189 422 -227 41 -13 83 -29 92 -37 21 -18 96 -194 136 -322 38
-119 77 -316 98 -485 31 -265 29 -558 -20 -1974 -25 -733 -46 -1344 -46 -1356
0 -21 -4 -22 -152 -28 -464 -19 -1013 -158 -1547 -392 -57 -25 -110 -45 -117
-45 -10 0 -14 16 -14 63 2 533 53 4504 61 4782 9 290 9 439 0 630 -10 220 -18
306 -47 509 l-7 48 32 -16 c17 -10 82 -68 144 -130z m1205 -195 c337 -77 615
-141 618 -144 8 -7 45 -149 40 -154 -5 -5 -1267 234 -1274 242 -6 6 -41 164
-42 188 0 13 5 16 23 12 12 -3 298 -68 635 -144z m-846 -224 c84 -100 219
-251 302 -334 90 -93 143 -153 133 -153 -27 0 -125 53 -197 106 -128 94 -261
258 -346 425 -39 78 -66 151 -52 143 5 -3 77 -87 160 -187z m909 -3 l616 -117
31 -85 c18 -47 30 -87 28 -90 -7 -6 -1269 218 -1277 226 -9 10 -34 78 -53 141
l-16 53 28 -5 c15 -3 304 -58 643 -123z m2727 -126 c6 -35 33 -187 61 -338
269 -1467 457 -2992 550 -4455 32 -496 35 -565 24 -565 -6 0 -43 15 -84 34
-289 133 -637 191 -937 156 -219 -25 -493 -114 -698 -225 -110 -60 -280 -175
-382 -257 -95 -77 -311 -287 -372 -362 -49 -60 -70 -69 -70 -32 0 14 34 800
75 1748 41 948 82 1882 90 2076 24 542 -3 852 -105 1224 -38 136 -38 141 -2
134 170 -37 517 -71 627 -62 122 9 351 60 434 95 214 91 402 259 561 501 60
91 154 274 181 353 7 20 18 37 25 37 6 0 16 -28 22 -62z m-2643 -103 c460 -81
613 -111 623 -124 20 -25 102 -174 98 -178 -8 -8 -1262 201 -1277 214 -15 12
-109 183 -109 198 0 4 12 5 28 2 15 -3 302 -53 637 -112z m130 -246 l620 -101
29 -31 c131 -146 147 -167 126 -167 -11 0 -294 43 -628 96 -684 108 -614 88
-721 209 -63 73 -77 95 -59 95 7 0 292 -45 633 -101z m249 -256 l609 -96 80
-53 c64 -43 167 -91 277 -127 34 -12 -145 -6 -260 8 -262 32 -899 157 -1050
206 -115 38 -327 157 -281 159 8 0 289 -43 625 -97z m116 -201 l225 -47 18
-55 c10 -30 33 -118 52 -195 60 -250 85 -466 85 -750 1 -215 -170 -4236 -180
-4248 -6 -7 -369 180 -393 202 -6 6 28 1070 113 3571 22 648 -33 1092 -181
1447 -61 146 -60 137 -8 129 24 -4 145 -28 269 -54z m-210 -4149 c0 -16 -7
-239 -16 -498 -9 -263 -13 -471 -8 -472 5 -2 113 -60 239 -128 188 -102 231
-121 234 -107 5 26 132 173 253 293 206 205 424 363 663 480 165 80 270 118
426 153 383 85 772 38 1148 -140 51 -24 95 -44 97 -44 1 0 4 13 6 29 l3 30
115 -48 c481 -200 804 -457 916 -728 29 -72 30 -117 3 -185 -149 -379 -806
-733 -1749 -942 -1342 -297 -3054 -284 -4355 34 -874 213 -1457 542 -1603 903
-45 111 -50 230 -14 302 26 53 123 165 201 232 174 149 435 298 728 413 147
59 387 140 452 155 l30 6 -6 -65 c-3 -36 -4 -66 -2 -66 2 -1 95 -11 206 -24
l201 -23 72 34 c192 92 561 225 809 293 250 69 567 122 791 133 173 8 160 10
160 -20z m-2237 -213 c-4 -4 -64 -24 -132 -45 -464 -139 -862 -340 -1116 -561
-80 -70 -86 -74 -55 -34 158 206 454 394 870 553 114 43 358 125 425 141 12 3
20 -44 8 -54z m5406 -106 c393 -156 712 -373 848 -577 47 -70 93 -183 93 -227
0 -19 -8 -12 -33 35 -90 167 -262 330 -502 475 -94 57 -352 183 -460 225 -38
15 -73 33 -77 39 -12 18 -9 76 4 76 6 0 63 -21 127 -46z m-6864 -971 c116
-561 1188 -1036 2725 -1207 437 -49 657 -60 1195 -60 523 0 750 11 1155 55
1206 131 2132 442 2546 854 59 59 118 129 143 170 l43 70 -7 -55 c-25 -208
-231 -450 -550 -643 -861 -521 -2554 -789 -4185 -662 -1767 138 -3057 699
-3107 1351 -5 65 13 212 24 200 2 -2 11 -35 18 -73z"/>
<path d="M9169 21450 c-164 -87 -211 -396 -73 -481 78 -48 189 -3 252 101 42
71 56 120 56 200 0 158 -113 244 -235 180z"/>
<path d="M7611 21245 c-521 -46 -507 -43 -553 -106 -41 -55 -35 -150 13 -199
25 -25 39 -30 77 -30 26 0 270 16 542 36 555 40 557 40 608 117 22 33 27 52
27 105 0 59 -2 66 -33 93 -30 27 -37 29 -115 28 -45 -1 -300 -20 -566 -44z
m659 -22 c42 -53 9 -153 -62 -186 -37 -17 -1039 -94 -1083 -83 -34 9 -59 59
-52 108 5 41 27 72 62 90 21 12 921 95 1042 97 67 1 73 -1 93 -26z"/>
<path d="M8128 21165 c-9 -21 -9 -29 5 -42 13 -13 19 -14 31 -3 19 15 21 41 4
58 -18 18 -27 15 -40 -13z"/>
<path d="M8022 21168 c-21 -21 -7 -68 20 -68 17 0 29 40 18 60 -12 23 -21 25
-38 8z"/>
<path d="M7910 21155 c-15 -18 -5 -65 14 -65 26 0 40 28 28 55 -13 29 -24 31
-42 10z"/>
<path d="M7810 21145 c-15 -18 -5 -65 15 -65 23 0 38 36 25 60 -13 24 -23 25
-40 5z"/>
<path d="M7704 21136 c-10 -25 0 -61 18 -64 12 -2 19 5 24 22 10 39 -29 77
-42 42z"/>
<path d="M7604 21126 c-10 -25 0 -61 18 -64 19 -4 32 29 23 58 -7 23 -33 27
-41 6z"/>
<path d="M7517 21124 c-12 -12 -8 -51 6 -62 20 -17 39 2 35 34 -3 27 -26 43
-41 28z"/>
<path d="M7421 21106 c-19 -23 -10 -61 14 -61 16 0 20 7 20 34 0 38 -15 50
-34 27z"/>
<path d="M7324 21096 c-11 -28 0 -61 21 -61 16 0 20 7 20 35 0 25 -5 36 -18
38 -9 2 -20 -3 -23 -12z"/>
<path d="M7224 21086 c-11 -28 0 -61 21 -61 16 0 20 7 20 35 0 25 -5 36 -18
38 -9 2 -20 -3 -23 -12z"/>
<path d="M7137 21084 c-13 -13 -7 -62 7 -67 20 -8 38 17 34 45 -3 22 -27 35
-41 22z"/>
<path d="M6747 21162 c-63 -42 -97 -115 -97 -212 0 -130 94 -172 181 -80 62
65 87 179 55 255 -24 56 -85 72 -139 37z"/>
<path d="M6445 21111 c-41 -25 -61 -49 -84 -101 -34 -78 -32 -166 5 -209 72
-85 206 14 221 164 7 64 -10 118 -44 145 -32 25 -59 25 -98 1z"/>
<path d="M2323 3011 c-266 -92 -425 -495 -313 -793 26 -71 99 -170 137 -187
15 -7 253 -108 528 -224 561 -236 576 -240 670 -196 69 32 144 112 192 205 55
105 80 193 94 322 21 190 -26 355 -129 459 -46 47 -56 51 -555 241 -290 110
-521 192 -540 192 -17 -1 -55 -9 -84 -19z m601 -210 c273 -104 507 -196 521
-205 68 -45 128 -167 146 -300 32 -237 -86 -545 -244 -636 -91 -52 -79 -56
-670 192 l-530 222 -43 58 c-63 86 -88 170 -88 293 0 169 57 323 160 434 76
83 157 128 231 130 12 1 245 -84 517 -188z"/>
<path d="M10623 17801 c-18 -11 -41 -38 -52 -60 -28 -54 -321 -1230 -321
-1287 0 -59 25 -111 64 -135 43 -26 73 -24 105 9 25 24 43 91 190 680 175 701
179 720 134 780 -26 35 -76 40 -120 13z m95 -51 c8 -16 11 -43 8 -76 -6 -53
-298 -1238 -317 -1286 -6 -15 -17 -32 -25 -38 -35 -30 -94 35 -94 103 0 44
294 1226 315 1267 32 61 88 76 113 30z"/>
<path d="M13388 9451 c-203 -67 -359 -262 -435 -546 -25 -92 -27 -115 -27
-295 0 -182 2 -202 28 -295 142 -519 546 -720 863 -431 195 177 307 520 274
834 -35 339 -189 605 -408 710 -94 44 -205 53 -295 23z m239 -29 c144 -45 256
-157 342 -344 225 -486 39 -1168 -348 -1282 -30 -9 -83 -16 -117 -16 -112 0
-120 17 -39 75 80 57 149 145 205 260 139 283 138 619 -1 902 -75 153 -199
278 -318 324 -62 23 -63 41 -4 67 64 27 77 29 155 31 39 1 90 -6 125 -17z
m-252 -121 c151 -75 265 -228 331 -447 36 -120 46 -366 19 -495 -48 -237 -183
-450 -332 -522 l-43 -21 -42 21 c-138 67 -267 258 -325 482 -31 118 -42 335
-24 462 30 209 104 381 221 513 42 46 45 48 87 43 24 -2 72 -19 108 -36z"/>
</g>
</svg>
